<?xml version="1.0" encoding="iso-8859-1"?>
<!-- Uploaded to: SVG Repo, www.svgrepo.com, Generator: SVG Repo Mixer Tools -->
<svg fill="#000000" height="800px" width="800px" version="1.1" id="Layer_1" xmlns="http://www.w3.org/2000/svg" xmlns:xlink="http://www.w3.org/1999/xlink" 
	 viewBox="0 0 512.001 512.001" xml:space="preserve">
<g>
	<g>
		<path d="M432.064,330.989c-0.01-0.383-0.026-0.761-0.043-1.139l-0.019-0.471c-0.039-1.083-0.078-2.171-0.136-3.251
			c-0.023-0.422-0.053-0.842-0.082-1.263l-0.043-0.622c-0.064-0.982-0.126-1.964-0.206-2.953c-0.036-0.431-0.077-0.861-0.119-1.291
			l-0.095-1.006c-0.078-0.833-0.157-1.665-0.247-2.482c-0.052-0.474-0.11-0.945-0.166-1.415l-0.092-0.758
			c-0.107-0.867-0.211-1.729-0.33-2.585c-0.071-0.527-0.15-1.052-0.229-1.577l-0.068-0.458c-0.134-0.897-0.269-1.791-0.418-2.701
			c-0.098-0.593-0.203-1.184-0.306-1.773l-0.042-0.24c-0.158-0.895-0.321-1.787-0.489-2.657c-0.128-0.67-0.264-1.339-0.4-1.996
			c-0.183-0.894-0.371-1.782-0.567-2.67c-0.143-0.647-0.289-1.292-0.44-1.938c-0.207-0.895-0.424-1.785-0.649-2.684
			c-0.155-0.624-0.314-1.247-0.481-1.888c-0.237-0.899-0.48-1.795-0.73-2.69l-0.073-0.262c-0.144-0.517-0.289-1.035-0.442-1.564
			c-0.265-0.904-0.537-1.807-0.825-2.741l-0.532-1.708c-0.299-0.933-0.609-1.862-0.926-2.797l-0.164-0.488
			c-0.126-0.374-0.252-0.747-0.385-1.125c-0.337-0.966-0.688-1.925-1.046-2.895l-0.17-0.466c-0.124-0.337-0.249-0.676-0.371-0.998
			c-0.388-1.024-0.791-2.042-1.2-3.061l-0.494-1.235c-0.47-1.149-0.958-2.287-1.451-3.421l-0.11-0.257
			c-0.085-0.203-0.171-0.406-0.247-0.572c-0.538-1.223-1.091-2.438-1.655-3.646c-0.144-0.376-0.316-0.738-0.512-1.084
			c-1.263-2.643-2.625-5.317-4.053-7.957c-10.325-21.369-15.957-42.082-16.904-61.976c0.029-0.335,0.044-0.673,0.031-1.012
			c-2.109-53.354,30.489-84.848,32.845-87.048c0.002-0.002,0.004-0.004,0.006-0.006c0.066-0.061,0.102-0.095,0.116-0.107
			c0.001-0.001,0.008-0.006,0.009-0.008c0.409-0.361,0.772-0.755,1.09-1.173c0.001-0.002,0.003-0.004,0.004-0.006
			c0.316-0.416,0.586-0.857,0.812-1.316c1.132-2.307,1.112-5.064-0.129-7.379c-0.248-0.462-0.545-0.908-0.892-1.328
			c-1.046-1.268-2.122-2.536-3.224-3.795c-1.102-1.259-2.227-2.509-3.368-3.742c-2.055-2.217-4.153-4.397-6.293-6.536
			c-32.085-32.09-73.31-55.199-114.384-63.901c-2.384-0.507-4.872,0.093-6.765,1.628c-1.895,1.535-2.994,3.843-2.994,6.281v37.841
			h-12.908v-36.55C278.065,9.898,268.167,0,256.002,0c-12.166,0-22.065,9.898-22.065,22.063v36.554H221.03V20.775
			c0-2.438-1.101-4.746-2.994-6.281c-1.421-1.15-3.173-1.775-4.968-1.802c-0.598-0.009-1.201,0.049-1.797,0.175
			c-43.813,9.282-87.799,34.956-120.677,70.436c-1.135,1.224-2.256,2.471-3.358,3.729s-2.183,2.532-3.236,3.809
			c-2.709,3.284-2.39,8.082,0.669,10.992c0.067,0.064,0.127,0.133,0.197,0.194c0.351,0.314,35.172,32.099,32.994,87.184
			c-0.014,0.352,0.003,0.703,0.036,1.05c-0.953,19.879-6.588,40.578-16.908,61.938c-1.514,2.799-2.951,5.63-4.27,8.415
			c-0.015,0.031-0.03,0.064-0.045,0.096c-0.003,0.008-0.006,0.015-0.01,0.023c-0.648,1.373-1.278,2.756-1.891,4.145l-0.357,0.833
			c-0.494,1.136-0.982,2.274-1.442,3.401c-0.115,0.28-0.226,0.562-0.338,0.842l-0.169,0.426c-0.405,1.013-0.808,2.029-1.195,3.048
			c-0.132,0.345-0.258,0.693-0.385,1.04l-0.161,0.439c-0.354,0.958-0.705,1.919-1.038,2.872c-0.138,0.391-0.272,0.786-0.403,1.18
			l-0.157,0.467c-0.312,0.925-0.621,1.848-0.922,2.789c-0.183,0.576-0.361,1.154-0.536,1.724c-0.28,0.91-0.557,1.819-0.822,2.736
			c-0.175,0.604-0.345,1.209-0.513,1.812c-0.25,0.899-0.497,1.8-0.731,2.698c-0.163,0.624-0.322,1.249-0.482,1.885
			c-0.222,0.89-0.439,1.783-0.645,2.671c-0.152,0.648-0.3,1.298-0.441,1.938c-0.197,0.888-0.385,1.779-0.574,2.703
			c-0.132,0.647-0.264,1.296-0.393,1.963c-0.17,0.886-0.332,1.777-0.488,2.665l-0.019,0.113c-0.112,0.632-0.224,1.263-0.33,1.903
			c-0.148,0.897-0.284,1.795-0.418,2.697l-0.052,0.344c-0.084,0.559-0.167,1.119-0.247,1.692c-0.116,0.86-0.222,1.722-0.328,2.587
			l-0.074,0.611c-0.064,0.514-0.126,1.027-0.183,1.551c-0.092,0.831-0.17,1.667-0.248,2.504l-0.082,0.865
			c-0.045,0.47-0.089,0.939-0.13,1.43c-0.07,0.847-0.125,1.699-0.181,2.55l-0.061,0.917c-0.031,0.455-0.063,0.91-0.087,1.35
			c-0.056,1.024-0.094,2.056-0.133,3.084l-0.029,0.729c-0.015,0.35-0.03,0.702-0.04,1.049c-0.045,1.623-0.069,3.253-0.069,4.886
			c0,7.488,0.475,15.031,1.415,22.426c0.372,2.923,0.821,5.864,1.336,8.743c0.51,2.853,1.102,5.746,1.76,8.602
			c18.056,78.217,86.762,134.268,167.07,136.303c1.512,0.04,3.029,0.058,4.55,0.058c1.52,0,3.039-0.018,4.542-0.057
			c42.193-1.069,82.638-17.299,113.886-45.7c31.034-28.206,51.024-66.544,56.29-107.952c0.938-7.391,1.413-14.935,1.413-22.422
			C432.133,334.234,432.109,332.603,432.064,330.989z M250.106,22.063c0-3.251,2.645-5.895,5.896-5.895
			c3.251,0,5.895,2.644,5.895,5.895v36.554h-11.791V22.063z M221.03,74.785h20.991h27.959h20.992v15.343H221.03V74.785z
			 M221.03,106.297h69.942v15.344H221.03V106.297z M221.03,137.809h69.942v15.343H221.03V137.809z M101.206,95.653
			c0.413-0.457,0.829-0.911,1.246-1.361c0.883-0.95,1.772-1.893,2.67-2.829c12.535-13.063,26.667-24.619,41.719-34.274
			c18.379-11.79,38.13-20.746,58.021-26.144v35.657v31.511v31.511v31.511v20.212h-70.755
			C133.273,136.861,111.725,107.414,101.206,95.653z M247.917,495.623c-71.234-3.547-131.683-53.879-147.781-123.618
			c-0.598-2.592-1.135-5.221-1.599-7.812c-0.468-2.614-0.876-5.286-1.213-7.94c-0.854-6.717-1.286-13.576-1.286-20.385
			c0-1.484,0.022-2.966,0.063-4.448c0.008-0.26,0.019-0.516,0.03-0.775l0.034-0.85c0.033-0.928,0.068-1.859,0.119-2.8
			c0.019-0.365,0.045-0.729,0.071-1.092l0.068-1c0.05-0.763,0.099-1.527,0.158-2.266c0.034-0.405,0.073-0.81,0.112-1.214
			l0.086-0.911c0.07-0.75,0.139-1.5,0.221-2.238c0.05-0.451,0.106-0.898,0.16-1.345l0.078-0.63c0.096-0.79,0.192-1.578,0.298-2.353
			c0.068-0.499,0.142-0.994,0.217-1.49l0.053-0.352c0.122-0.819,0.245-1.637,0.378-2.448c0.095-0.573,0.196-1.146,0.298-1.717
			l0.022-0.12c0.143-0.814,0.29-1.624,0.442-2.416c0.116-0.603,0.239-1.202,0.362-1.807c0.166-0.808,0.335-1.615,0.516-2.428
			c0.129-0.586,0.263-1.172,0.401-1.762c0.189-0.812,0.385-1.62,0.584-2.417c0.143-0.573,0.289-1.147,0.44-1.725
			c0.213-0.816,0.437-1.631,0.663-2.446c0.153-0.55,0.307-1.098,0.465-1.644c0.24-0.828,0.492-1.652,0.748-2.488
			c0.161-0.523,0.321-1.048,0.484-1.558c0.273-0.853,0.556-1.699,0.835-2.529l0.164-0.486c0.11-0.327,0.22-0.652,0.338-0.992
			c0.306-0.877,0.625-1.748,0.947-2.623l0.181-0.496c0.101-0.278,0.203-0.556,0.308-0.833c0.355-0.931,0.721-1.856,1.088-2.77
			l0.458-1.148c0.424-1.037,0.864-2.066,1.325-3.12l0.31-0.728c0.553-1.253,1.12-2.496,1.7-3.734
			c0.031-0.063,0.061-0.125,0.091-0.189c1.213-2.559,2.537-5.162,3.935-7.741c0.059-0.11,0.116-0.22,0.17-0.332
			c11.011-22.737,16.287-43.447,17.974-61.797h79.511c4.465,0,8.084-3.619,8.084-8.084v-20.212h26.889v181.894
			c-11.892,3.5-20.602,14.507-20.602,27.518c0,13.011,8.709,24.019,20.602,27.519V495.623z M256.002,391.25
			c-6.903,0-12.518-5.616-12.518-12.518c0-6.902,5.615-12.517,12.518-12.517c6.902,0,12.517,5.615,12.517,12.517
			C268.518,385.634,262.903,391.25,256.002,391.25z M414.68,356.253c-9.695,76.249-74.071,135.506-150.594,139.374v-89.376
			c11.891-3.5,20.601-14.508,20.601-27.519c0-13.01-8.709-24.018-20.601-27.518V169.32h26.887v20.212
			c0,4.466,3.62,8.084,8.084,8.084h23.056c4.466,0,8.084-3.619,8.084-8.084s-3.618-8.084-8.084-8.084h-14.972v-20.212v-31.511
			V98.212V66.701V31.044c33.844,9.186,67.286,28.669,94.253,54.895c2.79,2.713,5.51,5.498,8.154,8.352
			c0.418,0.452,0.834,0.908,1.247,1.364c-10.519,11.761-32.066,41.207-32.898,85.793h-30.634c-4.466,0-8.084,3.618-8.084,8.084
			c0,4.466,3.618,8.084,8.084,8.084h31.304c1.687,18.35,6.964,39.06,17.974,61.797c0.054,0.112,0.111,0.222,0.169,0.331
			c1.379,2.544,2.689,5.12,3.897,7.658c0.027,0.064,0.057,0.126,0.086,0.189c0.597,1.262,1.177,2.533,1.755,3.846l0.31,0.724
			c0.445,1.025,0.887,2.055,1.314,3.099l0.454,1.138c0.37,0.919,0.735,1.843,1.093,2.786c0.104,0.268,0.202,0.539,0.3,0.81
			l0.189,0.512c0.321,0.871,0.64,1.742,0.944,2.614l0.502,1.479c0.287,0.844,0.567,1.685,0.835,2.524l0.489,1.569
			c0.255,0.833,0.509,1.666,0.748,2.49c0.134,0.459,0.262,0.921,0.39,1.38l0.074,0.267c0.229,0.817,0.451,1.636,0.661,2.439
			c0.15,0.573,0.294,1.148,0.437,1.715c0.203,0.807,0.398,1.618,0.587,2.429c0.137,0.586,0.271,1.176,0.401,1.766
			c0.178,0.805,0.348,1.614,0.516,2.431c0.122,0.592,0.244,1.185,0.36,1.798c0.157,0.806,0.302,1.615,0.445,2.417l0.041,0.233
			c0.094,0.535,0.189,1.068,0.275,1.589c0.134,0.819,0.257,1.641,0.379,2.457l0.07,0.473c0.069,0.456,0.137,0.911,0.201,1.374
			c0.108,0.781,0.203,1.564,0.299,2.35l0.092,0.757c0.049,0.402,0.098,0.804,0.143,1.219c0.082,0.742,0.152,1.489,0.222,2.234
			l0.098,1.036c0.034,0.362,0.069,0.724,0.098,1.074c0.072,0.885,0.129,1.774,0.186,2.668l0.05,0.724
			c0.025,0.332,0.047,0.662,0.066,0.995c0.054,0.981,0.087,1.968,0.124,2.987l0.024,0.577c0.013,0.285,0.025,0.568,0.033,0.865
			c0.041,1.475,0.064,2.956,0.064,4.439C415.964,342.677,415.532,349.535,414.68,356.253z"/>
	</g>
</g>
</svg>