<?xml version="1.0" encoding="UTF-8"?><svg id="Capa_2" xmlns="http://www.w3.org/2000/svg" viewBox="0 0 1126.94 341.66"><defs><style>.cls-1{fill:#ff6900;}</style></defs><g id="_图层_1"><path d="m427.42,170.19l30.27-45.8,8.57,12.22-20.33,33.58h-18.5Zm58.02,0l-24.21-38.37-31.98-46.03h18.16l23.07,34.72,33.35,49.68h-18.39Zm-11.88-43.06l-8.57-11.54,18.84-29.81h18.16l-28.44,41.34Z"/><path d="m530.21,89.33c0,2.67-.82,4.8-2.46,6.4-1.64,1.6-3.83,2.4-6.57,2.4s-4.89-.8-6.45-2.4c-1.56-1.6-2.34-3.73-2.34-6.4s.8-4.93,2.4-6.57c1.6-1.64,3.73-2.46,6.4-2.46s4.93.82,6.57,2.46c1.64,1.64,2.46,3.83,2.46,6.57Zm-1.71,80.86h-14.39v-62.59h14.39v62.59Z"/><path d="m561.27,171.79c-3.81,0-7.23-.72-10.28-2.17-3.05-1.45-5.44-3.5-7.2-6.17-1.75-2.66-2.63-5.82-2.63-9.48,0-4.42,1.16-8.3,3.48-11.65,2.32-3.35,5.69-5.96,10.11-7.82,4.42-1.86,9.63-2.8,15.65-2.8h8.91v-2.4c0-3.27-1.12-5.9-3.37-7.88-2.25-1.98-5.2-2.97-8.85-2.97-2.67,0-5.04.57-7.14,1.71-2.09,1.14-3.9,2.82-5.42,5.03l-10.28-7.08c2.82-4.04,6.2-7.06,10.16-9.08,3.96-2.02,8.53-3.03,13.71-3.03s9.48.95,13.36,2.86c3.88,1.9,6.89,4.63,9.02,8.17,2.13,3.54,3.2,7.71,3.2,12.51v40.66h-14.39v-7.88h-.69c-1.52,2.97-3.84,5.29-6.97,6.97-3.12,1.67-6.59,2.51-10.39,2.51Zm4-12.22c2.28,0,4.49-.44,6.62-1.31,2.13-.88,3.9-2.19,5.31-3.94,1.41-1.75,2.11-3.88,2.11-6.4v-4h-5.82c-5.86,0-10.26.78-13.19,2.34-2.93,1.56-4.4,3.83-4.4,6.8,0,1.98.86,3.56,2.57,4.74,1.71,1.18,3.98,1.77,6.79,1.77Z"/><path d="m634.14,171.79c-6.02,0-11.25-1.35-15.7-4.05-4.45-2.7-7.88-6.53-10.28-11.48-2.4-4.95-3.6-10.74-3.6-17.36s1.2-12.52,3.6-17.47c2.4-4.95,5.82-8.75,10.28-11.42,4.45-2.67,9.69-4,15.7-4s11.14,1.33,15.59,4c4.45,2.67,7.9,6.47,10.34,11.42,2.44,4.95,3.65,10.77,3.65,17.47s-1.22,12.43-3.65,17.42c-2.44,4.99-5.88,8.81-10.34,11.48s-9.65,4-15.59,4Zm0-13.71c3.04,0,5.67-.78,7.88-2.34,2.21-1.56,3.9-3.79,5.08-6.68,1.18-2.89,1.77-6.28,1.77-10.16s-.59-7.29-1.77-10.22c-1.18-2.93-2.88-5.16-5.08-6.68-2.21-1.52-4.84-2.28-7.88-2.28s-5.67.76-7.88,2.28c-2.21,1.52-3.92,3.75-5.14,6.68-1.22,2.93-1.83,6.34-1.83,10.22s.61,7.27,1.83,10.16c1.22,2.89,2.93,5.12,5.14,6.68,2.21,1.56,4.83,2.34,7.88,2.34Z"/><path d="m675.02,170.19v-62.59h14.5v8.22h.57c1.83-3.12,4.24-5.54,7.25-7.25s6.26-2.57,9.77-2.57c3.73,0,6.98.93,9.76,2.8,2.78,1.87,4.89,4.59,6.34,8.17h.57c2.13-3.5,4.85-6.21,8.17-8.11,3.31-1.9,7.18-2.86,11.59-2.86,6.17,0,11,2.06,14.5,6.17,3.5,4.11,5.25,9.9,5.25,17.36v40.66h-14.62v-37.69c0-4.04-.9-7.21-2.68-9.54-1.79-2.32-4.25-3.48-7.37-3.48-2.51,0-4.68.57-6.51,1.71-1.83,1.14-3.24,2.78-4.23,4.91-.99,2.13-1.48,4.64-1.48,7.54v36.55h-14.5v-37.69c0-2.67-.42-4.99-1.26-6.97-.84-1.98-2.02-3.48-3.54-4.51-1.52-1.03-3.31-1.54-5.37-1.54-2.51,0-4.68.57-6.51,1.71-1.83,1.14-3.24,2.78-4.23,4.91-.99,2.13-1.49,4.64-1.49,7.54v36.55h-14.5Z"/><path d="m794.14,89.33c0,2.67-.82,4.8-2.46,6.4-1.64,1.6-3.83,2.4-6.57,2.4s-4.89-.8-6.45-2.4c-1.56-1.6-2.34-3.73-2.34-6.4s.8-4.93,2.4-6.57c1.6-1.64,3.73-2.46,6.4-2.46s4.93.82,6.57,2.46c1.64,1.64,2.46,3.83,2.46,6.57Zm-1.71,80.86h-14.39v-62.59h14.39v62.59Z"/><path d="m868.6,171.56c-7.39,0-13.92-1.64-19.59-4.91-5.67-3.27-9.96-7.69-12.85-13.25l11.88-7.99c2.36,4.19,5.27,7.31,8.74,9.37,3.46,2.06,7.44,3.08,11.93,3.08,3.2,0,6.03-.46,8.51-1.37,2.47-.91,4.38-2.19,5.71-3.83,1.33-1.64,2-3.48,2-5.54s-.57-3.94-1.71-5.42c-1.14-1.48-3.03-2.84-5.65-4.05-2.63-1.22-6.34-2.47-11.14-3.77l-.57-.11c-5.56-1.52-10.18-3.1-13.88-4.74-3.69-1.64-6.87-4.11-9.54-7.42-2.67-3.31-4-7.59-4-12.85,0-4.8,1.33-9.08,4-12.85,2.66-3.77,6.36-6.7,11.08-8.79,4.72-2.09,10.05-3.14,15.99-3.14,7.16,0,13.27,1.54,18.33,4.63,5.06,3.08,9,7.18,11.82,12.28l-11.54,7.65c-2.13-3.43-4.84-6.11-8.11-8.05-3.27-1.94-6.85-2.91-10.74-2.91-2.89,0-5.52.46-7.88,1.37-2.36.91-4.23,2.19-5.6,3.83-1.37,1.64-2.06,3.45-2.06,5.42,0,2.44.69,4.42,2.06,5.94,1.37,1.52,3.35,2.8,5.94,3.83,2.59,1.03,6.13,2.15,10.62,3.37,5.56,1.45,10.26,3.01,14.1,4.68,3.84,1.67,7.12,4.17,9.82,7.48,2.7,3.31,4.05,7.63,4.05,12.96,0,5.02-1.33,9.42-4,13.19-2.67,3.77-6.4,6.7-11.19,8.79-4.8,2.09-10.32,3.14-16.56,3.14Z"/><path d="m906.75,121.2v-13.59h41.23v13.59h-41.23Zm29.58,50.94c-6.4,0-11.31-1.77-14.73-5.31-3.43-3.54-5.14-8.66-5.14-15.36v-62.36h14.62v60.53c0,2.74.74,4.85,2.23,6.34,1.48,1.48,3.6,2.23,6.34,2.23,2.13,0,4.45-.38,6.97-1.14v13.59c-3.12.99-6.55,1.48-10.28,1.48Z"/><path d="m984.06,171.79c-6.02,0-11.25-1.35-15.7-4.05-4.45-2.7-7.88-6.53-10.28-11.48-2.4-4.95-3.6-10.74-3.6-17.36s1.2-12.52,3.6-17.47c2.4-4.95,5.82-8.75,10.28-11.42,4.45-2.67,9.69-4,15.7-4s11.14,1.33,15.59,4c4.45,2.67,7.9,6.47,10.34,11.42,2.44,4.95,3.65,10.77,3.65,17.47s-1.22,12.43-3.65,17.42c-2.44,4.99-5.88,8.81-10.34,11.48s-9.65,4-15.59,4Zm0-13.71c3.04,0,5.67-.78,7.88-2.34,2.21-1.56,3.9-3.79,5.08-6.68,1.18-2.89,1.77-6.28,1.77-10.16s-.59-7.29-1.77-10.22c-1.18-2.93-2.88-5.16-5.08-6.68-2.21-1.52-4.84-2.28-7.88-2.28s-5.67.76-7.88,2.28c-2.21,1.52-3.92,3.75-5.14,6.68-1.22,2.93-1.83,6.34-1.83,10.22s.61,7.27,1.83,10.16c1.22,2.89,2.93,5.12,5.14,6.68,2.21,1.56,4.83,2.34,7.88,2.34Z"/><path d="m1024.95,170.19v-62.59h14.5v11.54h.57c2.28-4.19,5.37-7.42,9.25-9.71s8.53-3.43,13.93-3.43h.69v14.62h-1.03c-5.25,0-9.61.67-13.08,2-3.46,1.33-6.05,3.27-7.77,5.82-1.71,2.55-2.57,5.54-2.57,8.97v32.78h-14.5Z"/><path d="m1100.33,171.79c-6.17,0-11.54-1.33-16.1-4s-8.09-6.43-10.56-11.31c-2.48-4.87-3.71-10.62-3.71-17.25s1.18-12.56,3.54-17.59c2.36-5.02,5.77-8.89,10.22-11.59,4.46-2.7,9.61-4.05,15.48-4.05,5.56,0,10.43,1.14,14.62,3.43,4.19,2.28,7.42,5.56,9.71,9.82,2.28,4.26,3.43,9.21,3.43,14.85,0,3.27-.38,6.47-1.14,9.59h-47.05l.34-11.76h33.01c0-2.82-.48-5.23-1.43-7.25-.95-2.02-2.4-3.6-4.34-4.74-1.94-1.14-4.32-1.71-7.14-1.71-3.12,0-5.77.82-7.94,2.46-2.17,1.64-3.79,4.04-4.85,7.2-1.07,3.16-1.6,7.06-1.6,11.71,0,4.04.59,7.5,1.77,10.39,1.18,2.89,2.93,5.14,5.25,6.74,2.32,1.6,5.2,2.4,8.62,2.4,2.82,0,5.37-.72,7.65-2.17,2.28-1.45,4.23-3.62,5.83-6.51l10.96,7.54c-2.13,4.11-5.29,7.44-9.48,9.99-4.19,2.55-9.21,3.83-15.08,3.83Z"/><path d="m427.71,255.92l15.5-41.75h4.58l15.56,41.75h-4.64l-13.01-35.36h-.34l-13.01,35.36h-4.64Zm26.02-18.84l1.08,4.19h-18.56l.96-4.19h16.52Z"/><path d="m492.66,226.05v29.87h-4.19v-4.53h-.34c-.91,1.62-2.24,2.91-4.02,3.88-1.77.96-3.62,1.44-5.54,1.44-3.32,0-5.91-1.03-7.78-3.08-1.87-2.06-2.8-4.95-2.8-8.68v-18.9h4.19v18.22c0,2.64.7,4.73,2.09,6.28,1.4,1.55,3.19,2.32,5.38,2.32,1.73,0,3.27-.39,4.61-1.16,1.34-.77,2.38-1.86,3.11-3.25.74-1.39,1.1-2.96,1.1-4.7v-17.71h4.19Z"/><path d="m497.92,230.01v-3.96h17.59v3.96h-17.59Zm13.01,26.98c-2.68,0-4.73-.78-6.17-2.35-1.43-1.56-2.15-3.8-2.15-6.7v-31.23h4.24v30.89c0,1.74.43,3.08,1.3,4.04.87.96,2.07,1.44,3.62,1.44.94,0,1.96-.21,3.05-.62v3.9c-1.02.41-2.32.62-3.9.62Z"/><path d="m520.66,255.92v-41.75h4.19v16.46h.28c.91-1.62,2.25-2.92,4.04-3.9,1.79-.98,3.63-1.47,5.52-1.47,3.32,0,5.92,1.04,7.81,3.11s2.83,4.98,2.83,8.71v18.84h-4.19v-18.16c0-2.6-.71-4.7-2.12-6.28s-3.2-2.38-5.35-2.38c-1.74,0-3.27.4-4.61,1.19s-2.38,1.88-3.11,3.25c-.74,1.38-1.1,2.93-1.1,4.67v17.71h-4.19Z"/><path d="m565.41,256.71c-2.72,0-5.1-.64-7.16-1.92-2.06-1.28-3.64-3.11-4.75-5.49-1.11-2.38-1.67-5.15-1.67-8.32s.56-5.94,1.67-8.32c1.11-2.38,2.7-4.21,4.75-5.49,2.05-1.28,4.44-1.92,7.16-1.92s5.09.64,7.13,1.92c2.04,1.28,3.62,3.11,4.75,5.49,1.13,2.38,1.7,5.15,1.7,8.32s-.57,5.94-1.7,8.32c-1.13,2.38-2.72,4.21-4.75,5.49-2.04,1.28-4.41,1.92-7.13,1.92Zm0-3.96c1.85,0,3.48-.48,4.89-1.44,1.41-.96,2.5-2.33,3.25-4.1.75-1.77,1.13-3.85,1.13-6.22s-.38-4.45-1.13-6.22-1.84-3.14-3.25-4.1c-1.42-.96-3.05-1.44-4.89-1.44s-3.53.48-4.92,1.44c-1.4.96-2.47,2.33-3.22,4.1-.75,1.77-1.13,3.85-1.13,6.22s.38,4.45,1.13,6.22c.75,1.77,1.83,3.14,3.22,4.1,1.39.96,3.04,1.44,4.92,1.44Z"/><path d="m585.77,255.92v-29.87h4.19v6h.28c1.21-2.07,2.79-3.72,4.75-4.95,1.96-1.22,4.17-1.84,6.62-1.84h.45v4.53h-.57c-2.34,0-4.38.42-6.11,1.27-1.74.85-3.07,1.96-4.02,3.34-.94,1.38-1.41,2.82-1.41,4.33v17.2h-4.19Z"/><path d="m612.53,216.71c0,.91-.27,1.62-.82,2.15-.55.53-1.27.79-2.18.79s-1.61-.26-2.12-.79c-.51-.53-.76-1.24-.76-2.15s.26-1.62.79-2.15c.53-.53,1.23-.79,2.09-.79s1.63.26,2.18.79c.55.53.82,1.24.82,2.15Zm-.85,39.26h-4.19v-29.93h4.19v29.93Z"/><path d="m623.79,252.41h17.76v3.96h-23.25v-3.39l17.03-22.97h-16.75v-3.96h22.18v3.39l-16.97,22.97Z"/><path d="m660.22,256.65c-2.87,0-5.36-.63-7.47-1.89-2.11-1.26-3.74-3.07-4.89-5.43-1.15-2.36-1.73-5.12-1.73-8.29s.54-6,1.61-8.37c1.07-2.38,2.64-4.21,4.7-5.49,2.05-1.28,4.46-1.92,7.21-1.92,2.56,0,4.8.55,6.7,1.64,1.9,1.09,3.38,2.65,4.44,4.67,1.06,2.02,1.58,4.35,1.58,6.99,0,1.21-.11,2.4-.34,3.56h-22.4l.17-3.85h18.22c0-1.85-.31-3.46-.93-4.84-.62-1.38-1.57-2.44-2.83-3.2-1.26-.75-2.8-1.13-4.61-1.13s-3.52.44-4.89,1.33c-1.38.89-2.43,2.23-3.17,4.02-.74,1.79-1.1,4.03-1.1,6.7,0,2.34.4,4.38,1.19,6.14s1.92,3.11,3.39,4.07c1.47.96,3.19,1.44,5.15,1.44,1.66,0,3.21-.4,4.64-1.19,1.43-.79,2.62-1.94,3.56-3.45l3.34,2.26c-1.25,1.96-2.84,3.49-4.78,4.58-1.94,1.09-4.2,1.64-6.76,1.64Z"/><path d="m704.68,255.92h-4.19v-4.75h-.34c-.98,1.77-2.31,3.14-3.99,4.1-1.68.96-3.54,1.44-5.57,1.44-2.45,0-4.66-.69-6.62-2.06-1.96-1.38-3.5-3.28-4.61-5.71-1.11-2.43-1.67-5.18-1.67-8.23s.56-5.65,1.67-8c1.11-2.36,2.65-4.19,4.61-5.49,1.96-1.3,4.17-1.95,6.62-1.95,1.92,0,3.72.49,5.4,1.47,1.68.98,3.06,2.34,4.16,4.07h.34v-16.63h4.19v41.75Zm-4.07-14.93c0-2.22-.4-4.22-1.19-6-.79-1.77-1.89-3.15-3.28-4.13-1.4-.98-2.98-1.47-4.75-1.47s-3.38.49-4.81,1.47c-1.43.98-2.56,2.36-3.37,4.13-.81,1.77-1.22,3.77-1.22,6s.42,4.22,1.25,6c.83,1.77,1.96,3.15,3.39,4.13,1.43.98,3.07,1.47,4.92,1.47,1.73,0,3.29-.49,4.67-1.47,1.38-.98,2.45-2.36,3.22-4.13.77-1.77,1.16-3.77,1.16-6Z"/><path d="m733.19,238.1v-4.19h10.41c2.94,0,5.29-.67,7.04-2.01,1.75-1.34,2.63-3.21,2.63-5.63s-.87-4.49-2.6-5.88c-1.74-1.4-4.09-2.09-7.07-2.09h-9.56v37.62h-4.36v-41.75h14.26c4.3,0,7.68,1.08,10.16,3.22,2.47,2.15,3.71,5.11,3.71,8.88s-1.23,6.64-3.68,8.71c-2.45,2.08-5.85,3.11-10.18,3.11h-10.75Zm9.9-.74l4.64-.4,11.77,18.95h-5.15l-11.26-18.56Z"/><path d="m777.49,256.65c-2.87,0-5.36-.63-7.47-1.89-2.11-1.26-3.74-3.07-4.89-5.43-1.15-2.36-1.73-5.12-1.73-8.29s.54-6,1.61-8.37c1.07-2.38,2.64-4.21,4.7-5.49,2.05-1.28,4.46-1.92,7.21-1.92,2.56,0,4.8.55,6.7,1.64,1.9,1.09,3.38,2.65,4.44,4.67,1.06,2.02,1.58,4.35,1.58,6.99,0,1.21-.11,2.4-.34,3.56h-22.4l.17-3.85h18.22c0-1.85-.31-3.46-.93-4.84-.62-1.38-1.57-2.44-2.83-3.2-1.26-.75-2.8-1.13-4.61-1.13s-3.52.44-4.89,1.33c-1.38.89-2.43,2.23-3.17,4.02-.74,1.79-1.1,4.03-1.1,6.7,0,2.34.4,4.38,1.19,6.14s1.92,3.11,3.39,4.07c1.47.96,3.19,1.44,5.15,1.44,1.66,0,3.21-.4,4.64-1.19,1.43-.79,2.62-1.94,3.56-3.45l3.34,2.26c-1.25,1.96-2.84,3.49-4.78,4.58-1.94,1.09-4.2,1.64-6.76,1.64Z"/><path d="m806.11,256.71c-2.83,0-5.26-.58-7.3-1.75-2.04-1.17-3.6-2.73-4.7-4.7l3.45-2.38c.91,1.62,2.1,2.86,3.59,3.71,1.49.85,3.18,1.27,5.06,1.27,2.04,0,3.64-.41,4.81-1.22,1.17-.81,1.75-1.91,1.75-3.31s-.59-2.53-1.78-3.39c-1.19-.87-3.08-1.58-5.69-2.15-3.43-.79-6.02-1.92-7.75-3.39s-2.6-3.36-2.6-5.66c0-2.56.98-4.62,2.94-6.17,1.96-1.55,4.6-2.32,7.92-2.32,2.49,0,4.68.53,6.56,1.58,1.89,1.06,3.45,2.57,4.7,4.53l-3.39,2.38c-.94-1.51-2.09-2.66-3.45-3.45-1.36-.79-2.85-1.19-4.47-1.19-2,0-3.57.4-4.72,1.19s-1.73,1.89-1.73,3.28c0,1.21.63,2.26,1.9,3.17,1.26.91,3.16,1.64,5.69,2.21,3.32.75,5.84,1.86,7.58,3.31,1.73,1.45,2.6,3.25,2.6,5.4,0,1.89-.44,3.51-1.33,4.87-.89,1.36-2.16,2.4-3.82,3.11-1.66.72-3.6,1.08-5.83,1.08Z"/><path d="m835.64,256.65c-2.87,0-5.36-.63-7.47-1.89-2.11-1.26-3.74-3.07-4.89-5.43-1.15-2.36-1.73-5.12-1.73-8.29s.54-6,1.61-8.37c1.07-2.38,2.64-4.21,4.7-5.49,2.05-1.28,4.46-1.92,7.21-1.92,2.56,0,4.8.55,6.7,1.64,1.9,1.09,3.38,2.65,4.44,4.67,1.06,2.02,1.58,4.35,1.58,6.99,0,1.21-.11,2.4-.34,3.56h-22.4l.17-3.85h18.22c0-1.85-.31-3.46-.93-4.84-.62-1.38-1.57-2.44-2.83-3.2-1.26-.75-2.8-1.13-4.61-1.13s-3.52.44-4.89,1.33c-1.38.89-2.43,2.23-3.17,4.02-.74,1.79-1.1,4.03-1.1,6.7,0,2.34.4,4.38,1.19,6.14s1.92,3.11,3.39,4.07c1.47.96,3.19,1.44,5.15,1.44,1.66,0,3.21-.4,4.64-1.19,1.43-.79,2.62-1.94,3.56-3.45l3.34,2.26c-1.25,1.96-2.84,3.49-4.78,4.58-1.94,1.09-4.2,1.64-6.76,1.64Z"/><path d="m854.59,251.17v-37h4.19v35.87c0,.79.21,1.4.62,1.81.41.42,1,.62,1.75.62h1.58v3.9h-2.49c-1.92,0-3.35-.43-4.27-1.3-.92-.87-1.39-2.17-1.39-3.9Z"/><path d="m868.4,251.17v-37h4.19v35.87c0,.79.21,1.4.62,1.81.41.42,1,.62,1.75.62h1.58v3.9h-2.49c-1.92,0-3.35-.43-4.27-1.3-.92-.87-1.39-2.17-1.39-3.9Z"/><path d="m894.82,256.65c-2.87,0-5.36-.63-7.47-1.89-2.11-1.26-3.74-3.07-4.89-5.43-1.15-2.36-1.73-5.12-1.73-8.29s.54-6,1.61-8.37c1.07-2.38,2.64-4.21,4.7-5.49,2.05-1.28,4.46-1.92,7.21-1.92,2.56,0,4.8.55,6.7,1.64,1.9,1.09,3.38,2.65,4.44,4.67,1.06,2.02,1.58,4.35,1.58,6.99,0,1.21-.11,2.4-.34,3.56h-22.4l.17-3.85h18.22c0-1.85-.31-3.46-.93-4.84-.62-1.38-1.57-2.44-2.83-3.2-1.26-.75-2.8-1.13-4.61-1.13s-3.52.44-4.89,1.33c-1.38.89-2.43,2.23-3.17,4.02-.74,1.79-1.1,4.03-1.1,6.7,0,2.34.4,4.38,1.19,6.14s1.92,3.11,3.39,4.07c1.47.96,3.19,1.44,5.15,1.44,1.66,0,3.21-.4,4.64-1.19,1.43-.79,2.62-1.94,3.56-3.45l3.34,2.26c-1.25,1.96-2.84,3.49-4.78,4.58-1.94,1.09-4.2,1.64-6.76,1.64Z"/><path d="m913.77,255.92v-29.87h4.19v6h.28c1.21-2.07,2.79-3.72,4.75-4.95,1.96-1.22,4.17-1.84,6.62-1.84h.45v4.53h-.57c-2.34,0-4.38.42-6.11,1.27-1.74.85-3.07,1.96-4.02,3.34-.94,1.38-1.41,2.82-1.41,4.33v17.2h-4.19Z"/><path class="cls-1" d="m306.05,35.7C273.81,3.59,227.47,0,170.83,0S67.71,3.63,35.48,35.82C3.27,68.01,0,114.35,0,171s3.27,103.01,35.5,135.2c32.22,32.2,78.63,35.46,135.33,35.46s103.11-3.26,135.33-35.46c32.22-32.2,35.5-78.56,35.5-135.2s-3.32-103.11-35.61-135.3m-147.79,198.45c0,1.15-.96,2.1-2.14,2.1h-29.14c-1.2,0-2.16-.95-2.16-2.1v-76.19c0-1.16.97-2.1,2.16-2.1h29.14c1.18,0,2.14.95,2.14,2.1v76.19Zm57.05,0c0,1.15-.97,2.1-2.15,2.1h-27.73c-1.19,0-2.16-.95-2.16-2.1v-65.74c-.03-11.48-.69-23.27-6.61-29.2-5.1-5.11-14.6-6.28-24.48-6.53h-50.27c-1.19,0-2.15.96-2.15,2.1v99.37c0,1.15-.98,2.1-2.16,2.1h-27.75c-1.19,0-2.14-.95-2.14-2.1v-126.61c0-1.16.95-2.11,2.14-2.11h80.07c20.93,0,42.8.95,53.59,11.76,10.84,10.85,11.8,32.69,11.8,53.64v63.32Zm57.13,0c0,1.15-.98,2.1-2.16,2.1h-27.75c-1.19,0-2.15-.95-2.15-2.1v-126.61c0-1.16.96-2.11,2.15-2.11h27.75c1.18,0,2.16.95,2.16,2.11v126.61Z"/></g></svg>